if (_typeface_js && _typeface_js.loadFace) _typeface_js.loadFace({"glyphs":{"S":{"x_min":0,"x_max":694.59375,"ha":833,"o":"m 0 278 l 555 278 l 555 139 l 0 139 l 0 0 l 694 0 l 694 417 l 139 417 l 139 556 l 694 556 l 694 695 l 0 695 l 0 278 "},"¦":{"x_min":0,"x_max":139,"ha":278,"o":"m 0 416 l 139 416 l 139 972 l 0 972 l 0 416 m 0 -277 l 139 -277 l 139 277 l 0 277 l 0 -277 "},"/":{"x_min":0,"x_max":694.5,"ha":833,"o":"m 0 0 l 139 0 l 139 138 l 0 138 l 0 0 m 139 138 l 277 138 l 277 277 l 139 277 l 139 138 m 277 277 l 416 277 l 416 416 l 277 416 l 277 277 m 416 416 l 555 416 l 555 555 l 416 555 l 416 416 m 555 556 l 694 556 l 694 695 l 555 695 l 555 556 "},"y":{"x_min":0,"x_max":694.5,"ha":833,"o":"m 139 417 l 277 417 l 277 0 l 416 0 l 416 417 l 277 417 l 277 556 l 139 556 l 139 695 l 0 695 l 0 556 l 139 556 l 139 417 m 555 556 l 694 556 l 694 695 l 555 695 l 555 556 m 416 416 l 555 416 l 555 555 l 416 555 l 416 416 "},"Á":{"x_min":0,"x_max":694.59375,"ha":833,"o":"m 277 695 l 0 695 l 0 0 l 139 0 l 139 277 l 555 277 l 555 0 l 694 0 l 694 695 l 416 695 l 416 833 l 277 833 l 277 695 m 139 555 l 555 555 l 555 416 l 139 416 l 139 555 m 416 833 l 555 833 l 555 972 l 416 972 l 416 833 "},"":{"x_min":0,"x_max":694.5,"ha":833,"o":"m 0 0 l 694 0 l 694 695 l 0 695 l 0 0 m 139 555 l 555 555 l 555 138 l 139 138 l 139 555 m 277 277 l 416 277 l 416 416 l 277 416 l 277 277 "},"g":{"x_min":0,"x_max":694.59375,"ha":833,"o":"m 0 0 l 694 0 l 694 417 l 277 417 l 277 278 l 555 278 l 555 139 l 139 139 l 139 556 l 694 556 l 694 695 l 0 695 l 0 0 "},"²":{"x_min":0,"x_max":417,"ha":556,"o":"m 0 695 l 278 695 l 278 556 l 417 556 l 417 417 l 0 417 l 0 695 m 0 833 l 0 972 l 417 972 l 417 695 l 278 695 l 278 833 l 0 833 "},"–":{"x_min":0,"x_max":278,"ha":417,"o":"m 0 278 l 0 417 l 278 417 l 278 278 l 0 278 "},"ë":{"x_min":0,"x_max":694.59375,"ha":833,"o":"m 416 695 l 277 695 l 277 972 l 0 972 l 0 0 l 694 0 l 694 139 l 139 139 l 139 278 l 416 278 l 416 417 l 139 417 l 139 556 l 694 556 l 694 972 l 416 972 l 416 695 "},"ƒ":{"x_min":0,"x_max":694.59375,"ha":833,"o":"m 0 0 l 277 0 l 277 278 l 416 278 l 416 417 l 277 417 l 277 556 l 694 556 l 694 695 l 139 695 l 139 417 l 0 417 l 0 278 l 139 278 l 139 139 l 0 139 l 0 0 "},"Î":{"x_min":0,"x_max":694.59375,"ha":833,"o":"m 277 833 l 139 833 l 139 695 l 0 695 l 0 556 l 277 556 l 277 139 l 0 139 l 0 0 l 694 0 l 694 139 l 416 139 l 416 556 l 694 556 l 694 695 l 555 695 l 555 833 l 416 833 l 416 972 l 277 972 l 277 833 m 277 833 l 416 833 l 416 695 l 277 695 l 277 833 "},"e":{"x_min":0,"x_max":694.59375,"ha":833,"o":"m 0 0 l 694 0 l 694 139 l 139 139 l 139 278 l 416 278 l 416 417 l 139 417 l 139 556 l 694 556 l 694 695 l 0 695 l 0 0 "},"Ã":{"x_min":0,"x_max":694.59375,"ha":833,"o":"m 555 0 l 694 0 l 694 972 l 555 972 l 555 833 l 416 833 l 416 972 l 0 972 l 0 0 l 139 0 l 139 277 l 555 277 l 555 0 m 139 555 l 555 555 l 555 416 l 139 416 l 139 555 m 139 833 l 277 833 l 277 695 l 139 695 l 139 833 "},"J":{"x_min":0,"x_max":694.59375,"ha":833,"o":"m 0 0 l 694 0 l 694 695 l 555 695 l 555 139 l 139 139 l 139 278 l 0 278 l 0 0 "},"»":{"x_min":0,"x_max":694.5,"ha":833,"o":"m 139 277 l 277 277 l 277 416 l 139 416 l 139 555 l 0 555 l 0 416 l 139 416 l 139 277 m 555 277 l 694 277 l 694 416 l 555 416 l 555 555 l 416 555 l 416 416 l 555 416 l 555 277 m 416 138 l 555 138 l 555 277 l 416 277 l 416 138 m 0 138 l 139 138 l 139 277 l 0 277 l 0 138 "},"©":{"x_min":0,"x_max":694.59375,"ha":833,"o":"m 139 -138 l 555 -138 l 555 0 l 139 0 l 139 138 l 555 138 l 555 0 l 694 0 l 694 695 l 555 695 l 555 833 l 139 833 l 139 695 l 555 695 l 555 556 l 139 556 l 139 695 l 0 695 l 0 0 l 139 0 l 139 -138 m 555 416 l 555 277 l 277 277 l 277 416 l 555 416 "},"ò":{"x_min":0,"x_max":694.59375,"ha":833,"o":"m 139 833 l 277 833 l 277 695 l 0 695 l 0 0 l 694 0 l 694 695 l 416 695 l 416 833 l 277 833 l 277 972 l 139 972 l 139 833 m 139 555 l 555 555 l 555 138 l 139 138 l 139 555 "},"^":{"x_min":0,"x_max":416.796875,"ha":556,"o":"m 277 416 l 416 416 l 416 555 l 277 555 l 277 694 l 139 694 l 139 555 l 277 555 l 277 416 m 0 416 l 139 416 l 139 555 l 0 555 l 0 416 "},"«":{"x_min":0,"x_max":694.5,"ha":833,"o":"m 139 138 l 277 138 l 277 277 l 139 277 l 139 416 l 0 416 l 0 277 l 139 277 l 139 138 m 555 138 l 694 138 l 694 277 l 555 277 l 555 416 l 416 416 l 416 277 l 555 277 l 555 138 m 555 416 l 694 416 l 694 555 l 555 555 l 555 416 m 139 416 l 277 416 l 277 555 l 139 555 l 139 416 "},"D":{"x_min":0,"x_max":694.59375,"ha":833,"o":"m 0 0 l 555 0 l 555 139 l 139 139 l 139 556 l 555 556 l 555 139 l 694 139 l 694 556 l 555 556 l 555 695 l 0 695 l 0 0 "},"":{"x_min":0,"x_max":0,"ha":695},"∙":{"x_min":0,"x_max":416.703125,"ha":556,"o":"m 0 139 l 0 556 l 416 556 l 416 139 l 0 139 "},"ÿ":{"x_min":0,"x_max":694.5,"ha":833,"o":"m 139 417 l 277 417 l 277 0 l 416 0 l 416 417 l 277 417 l 277 556 l 139 556 l 139 695 l 277 695 l 277 972 l 0 972 l 0 556 l 139 556 l 139 417 m 416 695 l 555 695 l 555 556 l 694 556 l 694 972 l 416 972 l 416 695 m 416 416 l 555 416 l 555 555 l 416 555 l 416 416 "},"":{"x_min":0,"x_max":694.5,"ha":833,"o":"m 0 0 l 694 0 l 694 695 l 0 695 l 0 0 m 139 555 l 555 555 l 555 138 l 139 138 l 139 555 m 277 277 l 416 277 l 416 416 l 277 416 l 277 277 "},"":{"x_min":0,"x_max":0,"ha":0},"í":{"x_min":0,"x_max":277.890625,"ha":417,"o":"m 0 695 l 139 695 l 139 0 l 277 0 l 277 695 l 139 695 l 139 833 l 0 833 l 0 695 m 139 833 l 277 833 l 277 972 l 139 972 l 139 833 "},"ˆ":{"x_min":0,"x_max":416.796875,"ha":556,"o":"m 277 694 l 416 694 l 416 833 l 277 833 l 277 972 l 139 972 l 139 833 l 277 833 l 277 694 m 0 694 l 139 694 l 139 833 l 0 833 l 0 694 "},"w":{"x_min":0,"x_max":694.59375,"ha":833,"o":"m 0 0 l 694 0 l 694 695 l 555 695 l 555 139 l 416 139 l 416 695 l 277 695 l 277 139 l 139 139 l 139 695 l 0 695 l 0 0 "},"$":{"x_min":0,"x_max":694.59375,"ha":833,"o":"m 0 695 l 0 278 l 555 278 l 555 139 l 0 139 l 0 0 l 277 0 l 277 -138 l 416 -138 l 416 0 l 694 0 l 694 417 l 139 417 l 139 556 l 694 556 l 694 695 l 416 695 l 416 833 l 277 833 l 277 695 l 0 695 "},"\\":{"x_min":0,"x_max":694.59375,"ha":833,"o":"m 139 417 l 277 417 l 277 278 l 416 278 l 416 139 l 555 139 l 555 0 l 694 0 l 694 139 l 555 139 l 555 278 l 416 278 l 416 417 l 277 417 l 277 556 l 139 556 l 139 695 l 0 695 l 0 556 l 139 556 l 139 417 "},"Ì":{"x_min":0,"x_max":694.59375,"ha":833,"o":"m 139 833 l 277 833 l 277 695 l 0 695 l 0 556 l 277 556 l 277 139 l 0 139 l 0 0 l 694 0 l 694 139 l 416 139 l 416 556 l 694 556 l 694 695 l 416 695 l 416 833 l 277 833 l 277 972 l 139 972 l 139 833 "},"µ":{"x_min":0,"x_max":694.59375,"ha":833,"o":"m 0 0 l 694 0 l 694 695 l 555 695 l 555 139 l 139 139 l 139 695 l 0 695 l 0 0 m 0 -277 l 139 -277 l 139 0 l 0 0 l 0 -277 "},"Ç":{"x_min":0,"x_max":694.59375,"ha":833,"o":"m 0 0 l 277 0 l 277 -138 l 139 -138 l 139 -277 l 416 -277 l 416 0 l 694 0 l 694 139 l 139 139 l 139 556 l 694 556 l 694 695 l 0 695 l 0 0 "},"’":{"x_min":0,"x_max":139,"ha":278,"o":"m 0 694 l 139 694 l 139 972 l 0 972 l 0 694 "},"-":{"x_min":0,"x_max":416.703125,"ha":556,"o":"m 0 278 l 0 417 l 416 417 l 416 278 l 0 278 "},"Q":{"x_min":0,"x_max":694.5,"ha":833,"o":"m 0 0 l 277 0 l 277 -138 l 416 -138 l 416 0 l 694 0 l 694 695 l 0 695 l 0 0 m 416 277 l 277 277 l 277 138 l 139 138 l 139 555 l 555 555 l 555 138 l 416 138 l 416 277 "},"M":{"x_min":0,"x_max":694.5,"ha":833,"o":"m 139 417 l 277 417 l 277 278 l 416 278 l 416 417 l 277 417 l 277 556 l 139 556 l 139 695 l 0 695 l 0 0 l 139 0 l 139 417 m 555 0 l 694 0 l 694 695 l 555 695 l 555 556 l 416 556 l 416 417 l 555 417 l 555 0 "},"C":{"x_min":0,"x_max":694.59375,"ha":833,"o":"m 0 0 l 694 0 l 694 139 l 139 139 l 139 556 l 694 556 l 694 695 l 0 695 l 0 0 "},"œ":{"x_min":0,"x_max":694.5,"ha":833,"o":"m 0 0 l 694 0 l 694 139 l 416 139 l 416 278 l 694 278 l 694 417 l 416 417 l 416 556 l 694 556 l 694 695 l 0 695 l 0 0 m 139 555 l 277 555 l 277 138 l 139 138 l 139 555 "},"!":{"x_min":0,"x_max":139,"ha":278,"o":"m 0 278 l 139 278 l 139 695 l 0 695 l 0 278 m 0 0 l 139 0 l 139 138 l 0 138 l 0 0 "},"ç":{"x_min":0,"x_max":694.59375,"ha":833,"o":"m 0 0 l 277 0 l 277 -138 l 139 -138 l 139 -277 l 416 -277 l 416 0 l 694 0 l 694 139 l 139 139 l 139 556 l 694 556 l 694 695 l 0 695 l 0 0 "},"È":{"x_min":0,"x_max":694.59375,"ha":833,"o":"m 139 833 l 277 833 l 277 695 l 0 695 l 0 0 l 694 0 l 694 139 l 139 139 l 139 278 l 416 278 l 416 417 l 139 417 l 139 556 l 694 556 l 694 695 l 416 695 l 416 833 l 277 833 l 277 972 l 139 972 l 139 833 "},"{":{"x_min":0,"x_max":416.796875,"ha":556,"o":"m 0 278 l 139 278 l 139 0 l 416 0 l 416 139 l 277 139 l 277 556 l 416 556 l 416 695 l 139 695 l 139 417 l 0 417 l 0 278 "},"X":{"x_min":0,"x_max":694.59375,"ha":833,"o":"m 139 417 l 277 417 l 277 278 l 416 278 l 416 139 l 555 139 l 555 0 l 694 0 l 694 139 l 555 139 l 555 278 l 416 278 l 416 417 l 277 417 l 277 556 l 139 556 l 139 695 l 0 695 l 0 556 l 139 556 l 139 417 m 0 0 l 139 0 l 139 138 l 0 138 l 0 0 m 139 138 l 277 138 l 277 277 l 139 277 l 139 138 m 555 556 l 694 556 l 694 695 l 555 695 l 555 556 m 416 416 l 555 416 l 555 555 l 416 555 l 416 416 "},"ô":{"x_min":0,"x_max":694.59375,"ha":833,"o":"m 277 833 l 139 833 l 139 695 l 0 695 l 0 0 l 694 0 l 694 695 l 555 695 l 555 833 l 416 833 l 416 972 l 277 972 l 277 833 m 139 555 l 555 555 l 555 138 l 139 138 l 139 555 m 277 833 l 416 833 l 416 695 l 277 695 l 277 833 "},"¼":{"x_min":0,"x_max":694.59375,"ha":833,"o":"m 416 416 l 555 416 l 555 138 l 416 138 l 416 416 l 277 416 l 277 277 l 139 277 l 139 833 l 0 833 l 0 277 l 139 277 l 139 138 l 277 138 l 277 0 l 555 0 l 555 -138 l 694 -138 l 694 416 l 555 416 l 555 555 l 416 555 l 416 416 m 555 556 l 694 556 l 694 695 l 555 695 l 555 556 m 0 0 l 139 0 l 139 138 l 0 138 l 0 0 "},"#":{"x_min":0,"x_max":694.59375,"ha":833,"o":"m 416 0 l 555 0 l 555 139 l 694 139 l 694 278 l 555 278 l 555 417 l 694 417 l 694 556 l 555 556 l 555 695 l 416 695 l 416 556 l 277 556 l 277 695 l 139 695 l 139 556 l 0 556 l 0 417 l 139 417 l 139 278 l 0 278 l 0 139 l 139 139 l 139 0 l 277 0 l 277 138 l 416 138 l 416 0 m 277 416 l 416 416 l 416 277 l 277 277 l 277 416 "},"Ê":{"x_min":0,"x_max":694.59375,"ha":833,"o":"m 277 833 l 139 833 l 139 695 l 0 695 l 0 0 l 694 0 l 694 139 l 139 139 l 139 278 l 416 278 l 416 417 l 139 417 l 139 556 l 694 556 l 694 695 l 555 695 l 555 833 l 416 833 l 416 972 l 277 972 l 277 833 m 277 833 l 416 833 l 416 695 l 277 695 l 277 833 "},")":{"x_min":0,"x_max":277.890625,"ha":417,"o":"m 139 139 l 277 139 l 277 556 l 139 556 l 139 695 l 0 695 l 0 556 l 139 556 l 139 139 m 0 0 l 139 0 l 139 138 l 0 138 l 0 0 "},"Å":{"x_min":0,"x_max":694.59375,"ha":833,"o":"m 139 695 l 0 695 l 0 0 l 139 0 l 139 277 l 555 277 l 555 0 l 694 0 l 694 695 l 555 695 l 555 972 l 139 972 l 139 695 m 139 555 l 555 555 l 555 416 l 139 416 l 139 555 m 416 695 l 277 695 l 277 833 l 416 833 l 416 695 "},"ø":{"x_min":0,"x_max":694.5,"ha":833,"o":"m 0 0 l 694 0 l 694 695 l 0 695 l 0 0 m 139 555 l 416 555 l 416 416 l 555 416 l 555 138 l 277 138 l 277 277 l 139 277 l 139 555 m 277 277 l 416 277 l 416 416 l 277 416 l 277 277 "},"â":{"x_min":0,"x_max":694.59375,"ha":833,"o":"m 277 833 l 139 833 l 139 695 l 0 695 l 0 0 l 139 0 l 139 277 l 555 277 l 555 0 l 694 0 l 694 695 l 555 695 l 555 833 l 416 833 l 416 972 l 277 972 l 277 833 m 139 555 l 555 555 l 555 416 l 139 416 l 139 555 m 277 833 l 416 833 l 416 695 l 277 695 l 277 833 "},"}":{"x_min":0,"x_max":416.703125,"ha":556,"o":"m 0 556 l 139 556 l 139 139 l 0 139 l 0 0 l 277 0 l 277 278 l 416 278 l 416 417 l 277 417 l 277 695 l 0 695 l 0 556 "},"‰":{"x_min":0,"x_max":1111.203125,"ha":1250,"o":"m 277 278 l 416 278 l 416 0 l 694 0 l 694 278 l 416 278 l 416 417 l 277 417 l 277 695 l 0 695 l 0 417 l 277 417 l 277 278 m 833 0 l 1111 0 l 1111 277 l 833 277 l 833 0 m 139 138 l 277 138 l 277 277 l 139 277 l 139 138 m 0 0 l 139 0 l 139 138 l 0 138 l 0 0 m 416 416 l 555 416 l 555 555 l 416 555 l 416 416 m 555 556 l 694 556 l 694 695 l 555 695 l 555 556 "},"Ä":{"x_min":0,"x_max":694.59375,"ha":833,"o":"m 555 0 l 694 0 l 694 972 l 416 972 l 416 695 l 277 695 l 277 972 l 0 972 l 0 0 l 139 0 l 139 277 l 555 277 l 555 0 m 139 555 l 555 555 l 555 416 l 139 416 l 139 555 "},"¸":{"x_min":0,"x_max":277.890625,"ha":417,"o":"m 0 -277 l 277 -277 l 277 0 l 139 0 l 139 -138 l 0 -138 l 0 -277 "},"a":{"x_min":0,"x_max":694.59375,"ha":833,"o":"m 555 0 l 694 0 l 694 695 l 0 695 l 0 0 l 139 0 l 139 277 l 555 277 l 555 0 m 139 555 l 555 555 l 555 416 l 139 416 l 139 555 "},"—":{"x_min":0,"x_max":555.59375,"ha":695,"o":"m 0 278 l 0 417 l 555 417 l 555 278 l 0 278 "},"=":{"x_min":0,"x_max":694.5,"ha":833,"o":"m 0 417 l 0 556 l 694 556 l 694 417 l 0 417 m 0 139 l 0 278 l 694 278 l 694 139 l 0 139 "},"N":{"x_min":0,"x_max":694.59375,"ha":833,"o":"m 139 416 l 277 416 l 277 277 l 416 277 l 416 138 l 555 138 l 555 0 l 694 0 l 694 695 l 555 695 l 555 278 l 416 278 l 416 417 l 277 417 l 277 556 l 139 556 l 139 695 l 0 695 l 0 0 l 139 0 l 139 416 "},"ú":{"x_min":0,"x_max":694.59375,"ha":833,"o":"m 0 0 l 694 0 l 694 695 l 555 695 l 555 139 l 139 139 l 139 695 l 0 695 l 0 0 m 277 695 l 416 695 l 416 833 l 277 833 l 277 695 m 416 833 l 555 833 l 555 972 l 416 972 l 416 833 "},"2":{"x_min":0,"x_max":694.59375,"ha":833,"o":"m 0 556 l 555 556 l 555 417 l 0 417 l 0 0 l 694 0 l 694 139 l 139 139 l 139 278 l 694 278 l 694 695 l 0 695 l 0 556 "},"ü":{"x_min":0,"x_max":694.59375,"ha":833,"o":"m 416 695 l 555 695 l 555 139 l 139 139 l 139 695 l 277 695 l 277 972 l 0 972 l 0 0 l 694 0 l 694 972 l 416 972 l 416 695 "},"¯":{"x_min":0,"x_max":694.5,"ha":833,"o":"m 0 833 l 0 972 l 694 972 l 694 833 l 0 833 "},"Z":{"x_min":0,"x_max":694.59375,"ha":833,"o":"m 0 556 l 416 556 l 416 417 l 555 417 l 555 556 l 694 556 l 694 695 l 0 695 l 0 556 m 0 0 l 694 0 l 694 138 l 277 138 l 277 277 l 139 277 l 139 138 l 0 138 l 0 0 m 277 277 l 416 277 l 416 416 l 277 416 l 277 277 "},"u":{"x_min":0,"x_max":694.59375,"ha":833,"o":"m 0 0 l 694 0 l 694 695 l 555 695 l 555 139 l 139 139 l 139 695 l 0 695 l 0 0 "},"˜":{"x_min":0,"x_max":694.59375,"ha":833,"o":"m 139 833 l 277 833 l 277 694 l 694 694 l 694 972 l 555 972 l 555 833 l 416 833 l 416 972 l 0 972 l 0 694 l 139 694 l 139 833 "},"Ó":{"x_min":0,"x_max":694.5,"ha":833,"o":"m 0 0 l 694 0 l 694 695 l 416 695 l 416 833 l 277 833 l 277 695 l 0 695 l 0 0 m 139 555 l 555 555 l 555 138 l 139 138 l 139 555 m 416 833 l 555 833 l 555 972 l 416 972 l 416 833 "},"k":{"x_min":0,"x_max":694.59375,"ha":833,"o":"m 416 138 l 555 138 l 555 0 l 694 0 l 694 139 l 555 139 l 555 278 l 416 278 l 416 417 l 139 417 l 139 695 l 0 695 l 0 0 l 139 0 l 139 277 l 416 277 l 416 138 m 555 416 l 555 555 l 416 555 l 416 416 l 555 416 m 555 556 l 694 556 l 694 695 l 555 695 l 555 556 "},"Ù":{"x_min":0,"x_max":694.59375,"ha":833,"o":"m 0 0 l 694 0 l 694 695 l 555 695 l 555 139 l 139 139 l 139 695 l 0 695 l 0 0 m 139 833 l 277 833 l 277 695 l 416 695 l 416 833 l 277 833 l 277 972 l 139 972 l 139 833 "},"Ÿ":{"x_min":0,"x_max":694.59375,"ha":833,"o":"m 416 695 l 555 695 l 555 417 l 139 417 l 139 695 l 277 695 l 277 972 l 0 972 l 0 278 l 277 278 l 277 0 l 416 0 l 416 278 l 694 278 l 694 972 l 416 972 l 416 695 "},"¢":{"x_min":0,"x_max":694.59375,"ha":833,"o":"m 0 0 l 277 0 l 277 -138 l 416 -138 l 416 0 l 694 0 l 694 139 l 139 139 l 139 556 l 694 556 l 694 695 l 416 695 l 416 833 l 277 833 l 277 695 l 0 695 l 0 0 "},"ß":{"x_min":0,"x_max":694.59375,"ha":833,"o":"m 0 0 l 139 0 l 139 277 l 555 277 l 555 138 l 277 138 l 277 0 l 694 0 l 694 278 l 555 278 l 555 417 l 139 417 l 139 556 l 555 556 l 555 417 l 694 417 l 694 695 l 0 695 l 0 0 "},"é":{"x_min":0,"x_max":694.59375,"ha":833,"o":"m 0 0 l 694 0 l 694 139 l 139 139 l 139 278 l 416 278 l 416 417 l 139 417 l 139 556 l 694 556 l 694 695 l 416 695 l 416 833 l 277 833 l 277 695 l 0 695 l 0 0 m 416 833 l 555 833 l 555 972 l 416 972 l 416 833 "},"s":{"x_min":0,"x_max":694.59375,"ha":833,"o":"m 0 278 l 555 278 l 555 139 l 0 139 l 0 0 l 694 0 l 694 417 l 139 417 l 139 556 l 694 556 l 694 695 l 0 695 l 0 278 "},"B":{"x_min":0,"x_max":694.59375,"ha":833,"o":"m 0 0 l 555 0 l 555 139 l 139 139 l 139 278 l 555 278 l 555 139 l 694 139 l 694 556 l 555 556 l 555 695 l 0 695 l 0 0 m 555 416 l 139 416 l 139 555 l 555 555 l 555 416 "},"…":{"x_min":0,"x_max":694.5,"ha":833,"o":"m 0 0 l 139 0 l 139 138 l 0 138 l 0 0 m 277 0 l 416 0 l 416 138 l 277 138 l 277 0 m 555 0 l 694 0 l 694 138 l 555 138 l 555 0 "},"?":{"x_min":0,"x_max":694.5,"ha":833,"o":"m 0 556 l 555 556 l 555 417 l 277 417 l 277 278 l 694 278 l 694 695 l 0 695 l 0 556 m 277 0 l 416 0 l 416 138 l 277 138 l 277 0 "},"H":{"x_min":0,"x_max":694.59375,"ha":833,"o":"m 555 0 l 694 0 l 694 695 l 555 695 l 555 417 l 139 417 l 139 695 l 0 695 l 0 0 l 139 0 l 139 277 l 555 277 l 555 0 "},"î":{"x_min":0,"x_max":416.796875,"ha":556,"o":"m 0 695 l 139 695 l 139 0 l 277 0 l 277 695 l 139 695 l 139 833 l 0 833 l 0 695 m 277 695 l 416 695 l 416 833 l 277 833 l 277 972 l 139 972 l 139 833 l 277 833 l 277 695 "},"c":{"x_min":0,"x_max":694.59375,"ha":833,"o":"m 0 0 l 694 0 l 694 139 l 139 139 l 139 556 l 694 556 l 694 695 l 0 695 l 0 0 "},"¶":{"x_min":0,"x_max":694.5,"ha":833,"o":"m 0 278 l 277 278 l 277 0 l 416 0 l 416 555 l 555 555 l 555 0 l 694 0 l 694 695 l 0 695 l 0 278 "},"•":{"x_min":0,"x_max":694.59375,"ha":833,"o":"m 0 278 l 139 278 l 139 139 l 277 139 l 277 0 l 416 0 l 416 139 l 555 139 l 555 278 l 694 278 l 694 417 l 555 417 l 555 556 l 416 556 l 416 695 l 277 695 l 277 556 l 139 556 l 139 417 l 0 417 l 0 278 "},"¥":{"x_min":0,"x_max":694.59375,"ha":833,"o":"m 0 417 l 139 417 l 139 278 l 277 278 l 277 139 l 139 139 l 139 0 l 555 0 l 555 139 l 416 139 l 416 278 l 555 278 l 555 417 l 694 417 l 694 695 l 555 695 l 555 556 l 139 556 l 139 695 l 0 695 l 0 417 "},"(":{"x_min":0,"x_max":277.890625,"ha":417,"o":"m 139 0 l 277 0 l 277 138 l 139 138 l 139 555 l 0 555 l 0 138 l 139 138 l 139 0 m 139 556 l 277 556 l 277 695 l 139 695 l 139 556 "},"U":{"x_min":0,"x_max":694.59375,"ha":833,"o":"m 0 0 l 694 0 l 694 695 l 555 695 l 555 139 l 139 139 l 139 695 l 0 695 l 0 0 "},"Ñ":{"x_min":0,"x_max":694.59375,"ha":833,"o":"m 139 416 l 277 416 l 277 277 l 416 277 l 416 138 l 555 138 l 555 0 l 694 0 l 694 972 l 555 972 l 555 833 l 416 833 l 416 972 l 0 972 l 0 0 l 139 0 l 139 416 m 139 833 l 277 833 l 277 695 l 555 695 l 555 278 l 416 278 l 416 417 l 277 417 l 277 556 l 139 556 l 139 833 "},"F":{"x_min":0,"x_max":694.59375,"ha":833,"o":"m 0 0 l 139 0 l 139 278 l 416 278 l 416 417 l 139 417 l 139 556 l 694 556 l 694 695 l 0 695 l 0 0 "},"­":{"x_min":0,"x_max":694.5,"ha":833,"o":"m 0 278 l 0 417 l 694 417 l 694 278 l 0 278 "},":":{"x_min":0,"x_max":139,"ha":278,"o":"m 0 556 l 139 556 l 139 695 l 0 695 l 0 556 m 0 0 l 139 0 l 139 138 l 0 138 l 0 0 "},"Û":{"x_min":0,"x_max":694.59375,"ha":833,"o":"m 277 833 l 416 833 l 416 695 l 555 695 l 555 139 l 139 139 l 139 695 l 0 695 l 0 0 l 694 0 l 694 695 l 555 695 l 555 833 l 416 833 l 416 972 l 277 972 l 277 833 m 139 695 l 277 695 l 277 833 l 139 833 l 139 695 "},"":{"x_min":0,"x_max":694.5,"ha":833,"o":"m 0 0 l 694 0 l 694 695 l 0 695 l 0 0 m 139 555 l 555 555 l 555 138 l 139 138 l 139 555 m 277 277 l 416 277 l 416 416 l 277 416 l 277 277 "},"*":{"x_min":0,"x_max":694.59375,"ha":833,"o":"m 139 416 l 277 416 l 277 277 l 416 277 l 416 416 l 555 416 l 555 277 l 694 277 l 694 416 l 555 416 l 555 555 l 416 555 l 416 694 l 277 694 l 277 555 l 139 555 l 139 694 l 0 694 l 0 555 l 139 555 l 139 416 m 555 555 l 694 555 l 694 694 l 555 694 l 555 555 m 0 277 l 139 277 l 139 416 l 0 416 l 0 277 "},"†":{"x_min":0.203125,"x_max":694.796875,"ha":833,"o":"m 0 556 l 0 695 l 278 695 l 278 972 l 417 972 l 417 695 l 694 695 l 694 556 l 417 556 l 417 -276 l 278 -276 l 278 556 l 0 556 "},"°":{"x_min":0,"x_max":416.703125,"ha":556,"o":"m 0 555 l 416 555 l 416 972 l 0 972 l 0 555 m 139 833 l 277 833 l 277 694 l 139 694 l 139 833 "},"V":{"x_min":0,"x_max":694.5,"ha":833,"o":"m 139 139 l 277 139 l 277 0 l 416 0 l 416 139 l 277 139 l 277 278 l 139 278 l 139 695 l 0 695 l 0 278 l 139 278 l 139 139 m 555 278 l 694 278 l 694 695 l 555 695 l 555 278 m 416 138 l 555 138 l 555 277 l 416 277 l 416 138 "},"å":{"x_min":0,"x_max":694.59375,"ha":833,"o":"m 139 695 l 0 695 l 0 0 l 139 0 l 139 277 l 555 277 l 555 0 l 694 0 l 694 695 l 555 695 l 555 972 l 139 972 l 139 695 m 139 555 l 555 555 l 555 416 l 139 416 l 139 555 m 416 695 l 277 695 l 277 833 l 416 833 l 416 695 "}," ":{"x_min":0,"x_max":0,"ha":833},"0":{"x_min":0,"x_max":694.5,"ha":833,"o":"m 0 0 l 694 0 l 694 695 l 0 695 l 0 0 m 139 555 l 555 555 l 555 138 l 139 138 l 139 555 "},"”":{"x_min":0,"x_max":416.703125,"ha":556,"o":"m 0 694 l 139 694 l 139 972 l 0 972 l 0 694 m 277 694 l 416 694 l 416 972 l 277 972 l 277 694 "},"¾":{"x_min":0,"x_max":694.59375,"ha":833,"o":"m 0 695 l 139 695 l 139 556 l 277 556 l 277 417 l 0 417 l 0 278 l 139 278 l 139 139 l 277 139 l 277 0 l 555 0 l 555 -138 l 694 -138 l 694 417 l 555 417 l 555 556 l 416 556 l 416 833 l 0 833 l 0 695 m 416 416 l 555 416 l 555 138 l 416 138 l 416 416 m 0 0 l 139 0 l 139 138 l 0 138 l 0 0 m 555 556 l 694 556 l 694 695 l 555 695 l 555 556 "},"@":{"x_min":0,"x_max":694.59375,"ha":833,"o":"m 277 0 l 694 0 l 694 695 l 0 695 l 0 0 l 139 0 l 139 555 l 555 555 l 555 416 l 277 416 l 277 0 m 416 277 l 555 277 l 555 138 l 416 138 l 416 277 "},"ö":{"x_min":0,"x_max":694.5,"ha":833,"o":"m 0 972 l 0 0 l 694 0 l 694 972 l 416 972 l 416 695 l 277 695 l 277 972 l 0 972 m 139 555 l 555 555 l 555 138 l 139 138 l 139 555 "},"i":{"x_min":0,"x_max":139,"ha":278,"o":"m 0 0 l 139 0 l 139 695 l 0 695 l 0 0 "},"Õ":{"x_min":0,"x_max":694.5,"ha":833,"o":"m 0 972 l 0 0 l 694 0 l 694 972 l 555 972 l 555 833 l 416 833 l 416 972 l 0 972 m 139 555 l 555 555 l 555 138 l 139 138 l 139 555 m 139 833 l 277 833 l 277 695 l 139 695 l 139 833 "},"þ":{"x_min":0,"x_max":694.59375,"ha":833,"o":"m 0 -277 l 139 -277 l 139 0 l 555 0 l 555 139 l 139 139 l 139 556 l 555 556 l 555 139 l 694 139 l 694 556 l 555 556 l 555 695 l 139 695 l 139 972 l 0 972 l 0 -277 "},"]":{"x_min":0,"x_max":277.796875,"ha":417,"o":"m 0 556 l 139 556 l 139 139 l 0 139 l 0 0 l 277 0 l 277 695 l 0 695 l 0 556 "},"m":{"x_min":0,"x_max":694.59375,"ha":833,"o":"m 277 0 l 416 0 l 416 555 l 555 555 l 555 0 l 694 0 l 694 695 l 0 695 l 0 0 l 139 0 l 139 555 l 277 555 l 277 0 "},"8":{"x_min":0,"x_max":694.5,"ha":833,"o":"m 0 0 l 694 0 l 694 695 l 0 695 l 0 0 m 139 277 l 555 277 l 555 138 l 139 138 l 139 277 m 139 555 l 555 555 l 555 416 l 139 416 l 139 555 "},"R":{"x_min":0,"x_max":694.59375,"ha":833,"o":"m 0 0 l 139 0 l 139 277 l 416 277 l 416 138 l 555 138 l 555 0 l 694 0 l 694 139 l 555 139 l 555 278 l 694 278 l 694 556 l 555 556 l 555 695 l 0 695 l 0 0 m 555 555 l 555 416 l 139 416 l 139 555 l 555 555 "},"á":{"x_min":0,"x_max":694.59375,"ha":833,"o":"m 277 695 l 0 695 l 0 0 l 139 0 l 139 277 l 555 277 l 555 0 l 694 0 l 694 695 l 416 695 l 416 833 l 277 833 l 277 695 m 139 555 l 555 555 l 555 416 l 139 416 l 139 555 m 416 833 l 555 833 l 555 972 l 416 972 l 416 833 "},"×":{"x_min":0,"x_max":416.796875,"ha":556,"o":"m 139 277 l 277 277 l 277 138 l 416 138 l 416 277 l 277 277 l 277 416 l 139 416 l 139 555 l 0 555 l 0 416 l 139 416 l 139 277 m 0 138 l 139 138 l 139 277 l 0 277 l 0 138 m 277 416 l 416 416 l 416 555 l 277 555 l 277 416 "},"o":{"x_min":0,"x_max":694.5,"ha":833,"o":"m 0 0 l 694 0 l 694 695 l 0 695 l 0 0 m 139 555 l 555 555 l 555 138 l 139 138 l 139 555 "},"5":{"x_min":0,"x_max":694.59375,"ha":833,"o":"m 0 695 l 0 278 l 555 278 l 555 139 l 0 139 l 0 0 l 694 0 l 694 417 l 139 417 l 139 556 l 694 556 l 694 695 l 0 695 "},"õ":{"x_min":0,"x_max":694.5,"ha":833,"o":"m 0 972 l 0 0 l 694 0 l 694 972 l 555 972 l 555 833 l 416 833 l 416 972 l 0 972 m 139 555 l 555 555 l 555 138 l 139 138 l 139 555 m 139 833 l 277 833 l 277 695 l 139 695 l 139 833 "},"7":{"x_min":0,"x_max":694.5,"ha":833,"o":"m 0 556 l 555 556 l 555 0 l 694 0 l 694 695 l 0 695 l 0 556 "},"K":{"x_min":0,"x_max":694.59375,"ha":833,"o":"m 416 138 l 555 138 l 555 0 l 694 0 l 694 139 l 555 139 l 555 278 l 416 278 l 416 417 l 139 417 l 139 695 l 0 695 l 0 0 l 139 0 l 139 277 l 416 277 l 416 138 m 555 416 l 555 555 l 416 555 l 416 416 l 555 416 m 555 556 l 694 556 l 694 695 l 555 695 l 555 556 "},",":{"x_min":0,"x_max":139,"ha":278,"o":"m 0 -138 l 139 -138 l 139 138 l 0 138 l 0 -138 "},"d":{"x_min":0,"x_max":694.59375,"ha":833,"o":"m 0 0 l 555 0 l 555 139 l 139 139 l 139 556 l 555 556 l 555 139 l 694 139 l 694 556 l 555 556 l 555 695 l 0 695 l 0 0 "},"¨":{"x_min":0,"x_max":695,"ha":833,"o":"m 0 694 l 0 972 l 278 972 l 278 694 l 0 694 m 417 694 l 417 972 l 695 972 l 695 694 l 417 694 "},"Ô":{"x_min":0,"x_max":694.59375,"ha":833,"o":"m 277 833 l 139 833 l 139 695 l 0 695 l 0 0 l 694 0 l 694 695 l 555 695 l 555 833 l 416 833 l 416 972 l 277 972 l 277 833 m 139 555 l 555 555 l 555 138 l 139 138 l 139 555 m 277 833 l 416 833 l 416 695 l 277 695 l 277 833 "},"E":{"x_min":0,"x_max":694.59375,"ha":833,"o":"m 0 0 l 694 0 l 694 139 l 139 139 l 139 278 l 416 278 l 416 417 l 139 417 l 139 556 l 694 556 l 694 695 l 0 695 l 0 0 "},"Y":{"x_min":0,"x_max":694.59375,"ha":833,"o":"m 0 278 l 277 278 l 277 0 l 416 0 l 416 278 l 694 278 l 694 695 l 555 695 l 555 417 l 139 417 l 139 695 l 0 695 l 0 278 "},"\"":{"x_min":0,"x_max":416.703125,"ha":556,"o":"m 0 416 l 139 416 l 139 694 l 0 694 l 0 416 m 277 416 l 416 416 l 416 694 l 277 694 l 277 416 "},"‹":{"x_min":0,"x_max":277.890625,"ha":417,"o":"m 139 138 l 277 138 l 277 277 l 139 277 l 139 416 l 0 416 l 0 277 l 139 277 l 139 138 m 139 416 l 277 416 l 277 555 l 139 555 l 139 416 "},"ê":{"x_min":0,"x_max":694.59375,"ha":833,"o":"m 277 833 l 139 833 l 139 695 l 0 695 l 0 0 l 694 0 l 694 139 l 139 139 l 139 278 l 416 278 l 416 417 l 139 417 l 139 556 l 694 556 l 694 695 l 555 695 l 555 833 l 416 833 l 416 972 l 277 972 l 277 833 m 277 833 l 416 833 l 416 695 l 277 695 l 277 833 "},"Ï":{"x_min":0,"x_max":694.5,"ha":833,"o":"m 0 972 l 0 556 l 277 556 l 277 139 l 0 139 l 0 0 l 694 0 l 694 139 l 416 139 l 416 556 l 694 556 l 694 972 l 416 972 l 416 695 l 277 695 l 277 972 l 0 972 "},"„":{"x_min":0,"x_max":416.703125,"ha":556,"o":"m 0 -138 l 139 -138 l 139 138 l 0 138 l 0 -138 m 277 -138 l 416 -138 l 416 138 l 277 138 l 277 -138 "},"Â":{"x_min":0,"x_max":694.59375,"ha":833,"o":"m 277 833 l 139 833 l 139 695 l 0 695 l 0 0 l 139 0 l 139 277 l 555 277 l 555 0 l 694 0 l 694 695 l 555 695 l 555 833 l 416 833 l 416 972 l 277 972 l 277 833 m 139 555 l 555 555 l 555 416 l 139 416 l 139 555 m 277 833 l 416 833 l 416 695 l 277 695 l 277 833 "},"Í":{"x_min":0,"x_max":694.5,"ha":833,"o":"m 0 556 l 277 556 l 277 139 l 0 139 l 0 0 l 694 0 l 694 139 l 416 139 l 416 556 l 694 556 l 694 695 l 416 695 l 416 833 l 277 833 l 277 695 l 0 695 l 0 556 m 416 833 l 555 833 l 555 972 l 416 972 l 416 833 "},"´":{"x_min":0,"x_max":277.890625,"ha":417,"o":"m 0 694 l 139 694 l 139 833 l 0 833 l 0 694 m 139 833 l 277 833 l 277 972 l 139 972 l 139 833 "},"ì":{"x_min":0,"x_max":277.890625,"ha":417,"o":"m 0 0 l 139 0 l 139 695 l 0 695 l 0 0 m 139 695 l 277 695 l 277 833 l 139 833 l 139 972 l 0 972 l 0 833 l 139 833 l 139 695 "},"±":{"x_min":0,"x_max":694.5,"ha":833,"o":"m 0 417 l 277 417 l 277 278 l 416 278 l 416 417 l 694 417 l 694 556 l 416 556 l 416 695 l 277 695 l 277 556 l 0 556 l 0 417 m 0 0 l 694 0 l 694 138 l 0 138 l 0 0 "},"Ú":{"x_min":0,"x_max":694.59375,"ha":833,"o":"m 0 0 l 694 0 l 694 695 l 555 695 l 555 139 l 139 139 l 139 695 l 0 695 l 0 0 m 277 695 l 416 695 l 416 833 l 277 833 l 277 695 m 416 833 l 555 833 l 555 972 l 416 972 l 416 833 "},"|":{"x_min":0,"x_max":139,"ha":278,"o":"m 0 -277 l 139 -277 l 139 972 l 0 972 l 0 -277 "},"§":{"x_min":0,"x_max":694.59375,"ha":833,"o":"m 0 139 l 555 139 l 555 0 l 0 0 l 0 -138 l 694 -138 l 694 556 l 139 556 l 139 695 l 694 695 l 694 833 l 0 833 l 0 139 m 555 416 l 555 277 l 139 277 l 139 416 l 555 416 "},"Ý":{"x_min":0,"x_max":694.59375,"ha":833,"o":"m 0 278 l 277 278 l 277 0 l 416 0 l 416 278 l 694 278 l 694 695 l 555 695 l 555 417 l 139 417 l 139 695 l 0 695 l 0 278 m 416 833 l 555 833 l 555 972 l 416 972 l 416 833 m 277 695 l 416 695 l 416 833 l 277 833 l 277 695 "},"b":{"x_min":0,"x_max":694.5,"ha":833,"o":"m 555 417 l 694 417 l 694 695 l 0 695 l 0 0 l 694 0 l 694 278 l 555 278 l 555 417 m 555 277 l 555 138 l 139 138 l 139 277 l 555 277 m 555 416 l 139 416 l 139 555 l 555 555 l 555 416 "},"q":{"x_min":0,"x_max":694.5,"ha":833,"o":"m 0 0 l 277 0 l 277 -138 l 416 -138 l 416 0 l 694 0 l 694 695 l 0 695 l 0 0 m 416 277 l 277 277 l 277 138 l 139 138 l 139 555 l 555 555 l 555 138 l 416 138 l 416 277 "},"Ö":{"x_min":0,"x_max":694.5,"ha":833,"o":"m 0 972 l 0 0 l 694 0 l 694 972 l 416 972 l 416 695 l 277 695 l 277 972 l 0 972 m 139 555 l 555 555 l 555 138 l 139 138 l 139 555 "},"z":{"x_min":0,"x_max":694.59375,"ha":833,"o":"m 0 556 l 416 556 l 416 417 l 555 417 l 555 556 l 694 556 l 694 695 l 0 695 l 0 556 m 0 0 l 694 0 l 694 138 l 277 138 l 277 277 l 139 277 l 139 138 l 0 138 l 0 0 m 277 277 l 416 277 l 416 416 l 277 416 l 277 277 "},"™":{"x_min":0,"x_max":694.5,"ha":833,"o":"m 0 833 l 277 833 l 277 416 l 416 416 l 416 833 l 694 833 l 694 972 l 0 972 l 0 833 m 139 0 l 277 0 l 277 -138 l 416 -138 l 416 0 l 277 0 l 277 138 l 139 138 l 139 277 l 0 277 l 0 -277 l 139 -277 l 139 0 m 416 0 l 555 0 l 555 -277 l 694 -277 l 694 277 l 555 277 l 555 138 l 416 138 l 416 0 "},"ã":{"x_min":0,"x_max":694.59375,"ha":833,"o":"m 555 0 l 694 0 l 694 972 l 555 972 l 555 833 l 416 833 l 416 972 l 0 972 l 0 0 l 139 0 l 139 277 l 555 277 l 555 0 m 139 555 l 555 555 l 555 416 l 139 416 l 139 555 m 139 833 l 277 833 l 277 695 l 139 695 l 139 833 "},"æ":{"x_min":0,"x_max":694.59375,"ha":833,"o":"m 277 0 l 694 0 l 694 139 l 416 139 l 416 278 l 694 278 l 694 417 l 416 417 l 416 556 l 694 556 l 694 695 l 0 695 l 0 0 l 139 0 l 139 277 l 277 277 l 277 0 m 139 555 l 277 555 l 277 416 l 139 416 l 139 555 "},"®":{"x_min":0,"x_max":694.59375,"ha":833,"o":"m 139 695 l 0 695 l 0 0 l 139 0 l 139 -138 l 555 -138 l 555 0 l 139 0 l 139 138 l 277 138 l 277 277 l 416 277 l 416 138 l 555 138 l 555 0 l 694 0 l 694 695 l 555 695 l 555 833 l 139 833 l 139 695 m 139 695 l 555 695 l 555 556 l 139 556 l 139 695 m 555 416 l 555 277 l 416 277 l 416 416 l 555 416 "},"É":{"x_min":0,"x_max":694.59375,"ha":833,"o":"m 0 0 l 694 0 l 694 139 l 139 139 l 139 278 l 416 278 l 416 417 l 139 417 l 139 556 l 694 556 l 694 695 l 416 695 l 416 833 l 277 833 l 277 695 l 0 695 l 0 0 m 416 833 l 555 833 l 555 972 l 416 972 l 416 833 "},"~":{"x_min":0,"x_max":694.59375,"ha":833,"o":"m 277 138 l 694 138 l 694 416 l 555 416 l 555 277 l 416 277 l 416 555 l 0 555 l 0 277 l 139 277 l 139 416 l 277 416 l 277 138 "},"³":{"x_min":0,"x_max":416.703125,"ha":556,"o":"m 0 833 l 139 833 l 139 694 l 277 694 l 277 555 l 0 555 l 0 416 l 416 416 l 416 972 l 0 972 l 0 833 "},"¡":{"x_min":0,"x_max":139,"ha":278,"o":"m 0 0 l 139 0 l 139 416 l 0 416 l 0 0 m 0 556 l 139 556 l 139 695 l 0 695 l 0 556 "},"[":{"x_min":0,"x_max":277.890625,"ha":417,"o":"m 0 0 l 277 0 l 277 139 l 139 139 l 139 556 l 277 556 l 277 695 l 0 695 l 0 0 "},"L":{"x_min":0,"x_max":694.59375,"ha":833,"o":"m 0 0 l 694 0 l 694 139 l 139 139 l 139 695 l 0 695 l 0 0 "},"":{"x_min":0,"x_max":694.5,"ha":833,"o":"m 0 0 l 694 0 l 694 695 l 0 695 l 0 0 m 139 555 l 555 555 l 555 138 l 139 138 l 139 555 m 277 277 l 416 277 l 416 416 l 277 416 l 277 277 "}," ":{"x_min":0,"x_max":0,"ha":833},"%":{"x_min":0,"x_max":694.5,"ha":833,"o":"m 277 278 l 416 278 l 416 0 l 694 0 l 694 278 l 416 278 l 416 417 l 277 417 l 277 695 l 0 695 l 0 417 l 277 417 l 277 278 m 139 138 l 277 138 l 277 277 l 139 277 l 139 138 m 0 0 l 139 0 l 139 138 l 0 138 l 0 0 m 416 416 l 555 416 l 555 555 l 416 555 l 416 416 m 555 556 l 694 556 l 694 695 l 555 695 l 555 556 "},"P":{"x_min":0,"x_max":694.59375,"ha":833,"o":"m 139 278 l 694 278 l 694 556 l 555 556 l 555 695 l 0 695 l 0 0 l 139 0 l 139 278 m 555 555 l 555 416 l 139 416 l 139 555 l 555 555 "},"À":{"x_min":0,"x_max":694.59375,"ha":833,"o":"m 139 833 l 277 833 l 277 695 l 0 695 l 0 0 l 139 0 l 139 277 l 555 277 l 555 0 l 694 0 l 694 695 l 416 695 l 416 833 l 277 833 l 277 972 l 139 972 l 139 833 m 139 555 l 555 555 l 555 416 l 139 416 l 139 555 "},"_":{"x_min":0,"x_max":694.5,"ha":833,"o":"m 0 -276 l 0 -137 l 694 -137 l 694 -276 l 0 -276 "},"ñ":{"x_min":0,"x_max":694.59375,"ha":833,"o":"m 0 972 l 0 0 l 139 0 l 139 555 l 555 555 l 555 0 l 694 0 l 694 972 l 555 972 l 555 833 l 416 833 l 416 972 l 0 972 m 139 833 l 277 833 l 277 695 l 139 695 l 139 833 "},"+":{"x_min":0,"x_max":694.5,"ha":833,"o":"m 0 278 l 277 278 l 277 0 l 416 0 l 416 278 l 694 278 l 694 417 l 416 417 l 416 695 l 277 695 l 277 417 l 0 417 l 0 278 "},"‚":{"x_min":0,"x_max":139,"ha":278,"o":"m 0 -138 l 139 -138 l 139 138 l 0 138 l 0 -138 "},"½":{"x_min":0,"x_max":694.59375,"ha":833,"o":"m 277 -138 l 694 -138 l 694 0 l 555 0 l 555 138 l 277 138 l 277 277 l 139 277 l 139 833 l 0 833 l 0 277 l 139 277 l 139 138 l 277 138 l 277 -138 m 277 277 l 555 277 l 555 138 l 694 138 l 694 416 l 555 416 l 555 555 l 416 555 l 416 416 l 277 416 l 277 277 m 0 0 l 139 0 l 139 138 l 0 138 l 0 0 m 555 556 l 694 556 l 694 695 l 555 695 l 555 556 "},"Æ":{"x_min":0,"x_max":694.59375,"ha":833,"o":"m 277 0 l 694 0 l 694 139 l 416 139 l 416 278 l 694 278 l 694 417 l 416 417 l 416 556 l 694 556 l 694 695 l 0 695 l 0 0 l 139 0 l 139 277 l 277 277 l 277 0 m 139 555 l 277 555 l 277 416 l 139 416 l 139 555 "},"":{"x_min":0,"x_max":694.5,"ha":833,"o":"m 0 0 l 694 0 l 694 695 l 0 695 l 0 0 m 139 555 l 555 555 l 555 138 l 139 138 l 139 555 m 277 277 l 416 277 l 416 416 l 277 416 l 277 277 "},"Ë":{"x_min":0,"x_max":694.59375,"ha":833,"o":"m 416 695 l 277 695 l 277 972 l 0 972 l 0 0 l 694 0 l 694 139 l 139 139 l 139 278 l 416 278 l 416 417 l 139 417 l 139 556 l 694 556 l 694 972 l 416 972 l 416 695 "},"'":{"x_min":0,"x_max":139,"ha":278,"o":"m 0 416 l 139 416 l 139 694 l 0 694 l 0 416 "},"Š":{"x_min":0,"x_max":694.59375,"ha":833,"o":"m 139 833 l 277 833 l 277 695 l 0 695 l 0 278 l 555 278 l 555 139 l 0 139 l 0 0 l 694 0 l 694 417 l 139 417 l 139 556 l 694 556 l 694 695 l 416 695 l 416 833 l 277 833 l 277 972 l 139 972 l 139 833 m 416 833 l 555 833 l 555 972 l 416 972 l 416 833 "},"ª":{"x_min":0,"x_max":277.796875,"ha":417,"o":"m 0 833 l 139 833 l 139 694 l 0 694 l 0 416 l 277 416 l 277 972 l 0 972 l 0 833 "},"Œ":{"x_min":0,"x_max":694.5,"ha":833,"o":"m 0 0 l 694 0 l 694 139 l 416 139 l 416 278 l 694 278 l 694 417 l 416 417 l 416 556 l 694 556 l 694 695 l 0 695 l 0 0 m 139 555 l 277 555 l 277 138 l 139 138 l 139 555 "},"ð":{"x_min":0,"x_max":694.59375,"ha":833,"o":"m 139 278 l 277 278 l 277 417 l 139 417 l 139 556 l 555 556 l 555 139 l 694 139 l 694 556 l 555 556 l 555 695 l 0 695 l 0 0 l 555 0 l 555 139 l 139 139 l 139 278 "},"T":{"x_min":0,"x_max":694.5,"ha":833,"o":"m 0 556 l 277 556 l 277 0 l 416 0 l 416 556 l 694 556 l 694 695 l 0 695 l 0 556 "},"š":{"x_min":0,"x_max":694.59375,"ha":833,"o":"m 139 833 l 277 833 l 277 695 l 0 695 l 0 278 l 555 278 l 555 139 l 0 139 l 0 0 l 694 0 l 694 417 l 139 417 l 139 556 l 694 556 l 694 695 l 416 695 l 416 833 l 277 833 l 277 972 l 139 972 l 139 833 m 416 833 l 555 833 l 555 972 l 416 972 l 416 833 "},"":{"x_min":0,"x_max":694.5,"ha":833,"o":"m 0 0 l 694 0 l 694 695 l 0 695 l 0 0 m 139 555 l 555 555 l 555 138 l 139 138 l 139 555 m 277 277 l 416 277 l 416 416 l 277 416 l 277 277 "},"Þ":{"x_min":0,"x_max":694.59375,"ha":833,"o":"m 0 -138 l 139 -138 l 139 0 l 555 0 l 555 139 l 139 139 l 139 556 l 555 556 l 555 139 l 694 139 l 694 556 l 555 556 l 555 695 l 139 695 l 139 833 l 0 833 l 0 -138 "},"j":{"x_min":0,"x_max":694.59375,"ha":833,"o":"m 0 0 l 694 0 l 694 695 l 555 695 l 555 139 l 139 139 l 139 278 l 0 278 l 0 0 "},"1":{"x_min":0,"x_max":277.890625,"ha":417,"o":"m 0 556 l 139 556 l 139 0 l 277 0 l 277 695 l 0 695 l 0 556 "},"›":{"x_min":0,"x_max":277.890625,"ha":417,"o":"m 139 277 l 277 277 l 277 416 l 139 416 l 139 555 l 0 555 l 0 416 l 139 416 l 139 277 m 0 138 l 139 138 l 139 277 l 0 277 l 0 138 "},"ä":{"x_min":0,"x_max":694.59375,"ha":833,"o":"m 555 0 l 694 0 l 694 972 l 416 972 l 416 695 l 277 695 l 277 972 l 0 972 l 0 0 l 139 0 l 139 277 l 555 277 l 555 0 m 139 555 l 555 555 l 555 416 l 139 416 l 139 555 "},"¹":{"x_min":0,"x_max":277.890625,"ha":417,"o":"m 139 416 l 277 416 l 277 972 l 139 972 l 139 833 l 0 833 l 0 694 l 139 694 l 139 416 "},"<":{"x_min":0,"x_max":416.796875,"ha":556,"o":"m 139 138 l 277 138 l 277 0 l 416 0 l 416 138 l 277 138 l 277 277 l 139 277 l 139 416 l 0 416 l 0 277 l 139 277 l 139 138 m 139 416 l 277 416 l 277 555 l 139 555 l 139 416 m 277 556 l 416 556 l 416 695 l 277 695 l 277 556 "},"£":{"x_min":0,"x_max":694.5,"ha":833,"o":"m 0 556 l 139 556 l 139 417 l 0 417 l 0 278 l 139 278 l 139 139 l 0 139 l 0 0 l 694 0 l 694 139 l 277 139 l 277 278 l 416 278 l 416 417 l 277 417 l 277 556 l 555 556 l 555 417 l 694 417 l 694 556 l 555 556 l 555 695 l 0 695 l 0 556 "},"t":{"x_min":0,"x_max":694.5,"ha":833,"o":"m 0 556 l 277 556 l 277 0 l 416 0 l 416 556 l 694 556 l 694 695 l 0 695 l 0 556 "},"¬":{"x_min":0.40625,"x_max":695,"ha":833,"o":"m 0 417 l 0 556 l 695 556 l 695 278 l 556 278 l 556 417 l 0 417 "},"ù":{"x_min":0,"x_max":694.59375,"ha":833,"o":"m 0 0 l 694 0 l 694 695 l 555 695 l 555 139 l 139 139 l 139 695 l 0 695 l 0 0 m 139 833 l 277 833 l 277 695 l 416 695 l 416 833 l 277 833 l 277 972 l 139 972 l 139 833 "},"W":{"x_min":0,"x_max":694.5,"ha":833,"o":"m 416 139 l 555 139 l 555 0 l 694 0 l 694 695 l 555 695 l 555 278 l 416 278 l 416 417 l 277 417 l 277 278 l 416 278 l 416 139 m 139 139 l 277 139 l 277 278 l 139 278 l 139 695 l 0 695 l 0 0 l 139 0 l 139 139 "},"ï":{"x_min":0,"x_max":416.703125,"ha":556,"o":"m 0 695 l 139 695 l 139 0 l 277 0 l 277 695 l 139 695 l 139 972 l 0 972 l 0 695 m 277 695 l 416 695 l 416 972 l 277 972 l 277 695 "},"":{"x_min":0,"x_max":694.5,"ha":833,"o":"m 0 0 l 694 0 l 694 695 l 0 695 l 0 0 m 139 555 l 555 555 l 555 138 l 139 138 l 139 555 m 277 277 l 416 277 l 416 416 l 277 416 l 277 277 "},">":{"x_min":0,"x_max":416.796875,"ha":556,"o":"m 139 417 l 277 417 l 277 278 l 416 278 l 416 417 l 277 417 l 277 556 l 139 556 l 139 695 l 0 695 l 0 556 l 139 556 l 139 417 m 139 138 l 277 138 l 277 277 l 139 277 l 139 138 m 0 0 l 139 0 l 139 138 l 0 138 l 0 0 "},"v":{"x_min":0,"x_max":694.5,"ha":833,"o":"m 139 139 l 277 139 l 277 0 l 416 0 l 416 139 l 277 139 l 277 278 l 139 278 l 139 695 l 0 695 l 0 278 l 139 278 l 139 139 m 555 278 l 694 278 l 694 695 l 555 695 l 555 278 m 416 138 l 555 138 l 555 277 l 416 277 l 416 138 "},"û":{"x_min":0,"x_max":694.59375,"ha":833,"o":"m 277 833 l 416 833 l 416 695 l 555 695 l 555 139 l 139 139 l 139 695 l 0 695 l 0 0 l 694 0 l 694 695 l 555 695 l 555 833 l 416 833 l 416 972 l 277 972 l 277 833 m 139 695 l 277 695 l 277 833 l 139 833 l 139 695 "},"Ò":{"x_min":0,"x_max":694.59375,"ha":833,"o":"m 139 833 l 277 833 l 277 695 l 0 695 l 0 0 l 694 0 l 694 695 l 416 695 l 416 833 l 277 833 l 277 972 l 139 972 l 139 833 m 139 555 l 555 555 l 555 138 l 139 138 l 139 555 "},"&":{"x_min":0,"x_max":694.59375,"ha":833,"o":"m 277 695 l 0 695 l 0 0 l 277 0 l 277 -138 l 416 -138 l 416 0 l 694 0 l 694 139 l 139 139 l 139 278 l 694 278 l 694 417 l 139 417 l 139 556 l 694 556 l 694 695 l 416 695 l 416 833 l 277 833 l 277 695 "},"":{"x_min":0,"x_max":694.5,"ha":833,"o":"m 0 0 l 694 0 l 694 695 l 0 695 l 0 0 m 139 555 l 555 555 l 555 138 l 139 138 l 139 555 m 277 277 l 416 277 l 416 416 l 277 416 l 277 277 "},"Ð":{"x_min":0,"x_max":694.59375,"ha":833,"o":"m 139 278 l 277 278 l 277 417 l 139 417 l 139 556 l 555 556 l 555 139 l 694 139 l 694 556 l 555 556 l 555 695 l 0 695 l 0 0 l 555 0 l 555 139 l 139 139 l 139 278 "},"I":{"x_min":0,"x_max":694.5,"ha":833,"o":"m 0 556 l 277 556 l 277 139 l 0 139 l 0 0 l 694 0 l 694 139 l 416 139 l 416 556 l 694 556 l 694 695 l 0 695 l 0 556 "},"G":{"x_min":0,"x_max":694.59375,"ha":833,"o":"m 0 0 l 694 0 l 694 417 l 277 417 l 277 278 l 555 278 l 555 139 l 139 139 l 139 556 l 694 556 l 694 695 l 0 695 l 0 0 "},"`":{"x_min":0,"x_max":139,"ha":278,"o":"m 0 416 l 139 416 l 139 694 l 0 694 l 0 416 "},"·":{"x_min":0,"x_max":416.703125,"ha":556,"o":"m 0 139 l 0 556 l 416 556 l 416 139 l 0 139 "},"r":{"x_min":0,"x_max":694.59375,"ha":833,"o":"m 416 138 l 555 138 l 555 0 l 694 0 l 694 139 l 555 139 l 555 278 l 694 278 l 694 695 l 0 695 l 0 0 l 139 0 l 139 277 l 416 277 l 416 138 m 139 555 l 555 555 l 555 416 l 139 416 l 139 555 "},"¿":{"x_min":0,"x_max":694.59375,"ha":833,"o":"m 0 0 l 694 0 l 694 138 l 139 138 l 139 277 l 416 277 l 416 416 l 0 416 l 0 0 m 277 556 l 416 556 l 416 695 l 277 695 l 277 556 "},"":{"x_min":0,"x_max":694.5,"ha":833,"o":"m 0 0 l 694 0 l 694 695 l 0 695 l 0 0 m 139 555 l 555 555 l 555 138 l 139 138 l 139 555 m 277 277 l 416 277 l 416 416 l 277 416 l 277 277 "},"ý":{"x_min":0,"x_max":694.5,"ha":833,"o":"m 139 417 l 277 417 l 277 0 l 416 0 l 416 417 l 277 417 l 277 556 l 139 556 l 139 695 l 0 695 l 0 556 l 139 556 l 139 417 m 416 416 l 555 416 l 555 555 l 416 555 l 416 416 m 555 556 l 694 556 l 694 695 l 555 695 l 555 556 m 277 695 l 416 695 l 416 833 l 277 833 l 277 695 m 416 833 l 555 833 l 555 972 l 416 972 l 416 833 "},"x":{"x_min":0,"x_max":694.59375,"ha":833,"o":"m 139 417 l 277 417 l 277 278 l 416 278 l 416 139 l 555 139 l 555 0 l 694 0 l 694 139 l 555 139 l 555 278 l 416 278 l 416 417 l 277 417 l 277 556 l 139 556 l 139 695 l 0 695 l 0 556 l 139 556 l 139 417 m 0 0 l 139 0 l 139 138 l 0 138 l 0 0 m 139 138 l 277 138 l 277 277 l 139 277 l 139 138 m 555 556 l 694 556 l 694 695 l 555 695 l 555 556 m 416 416 l 555 416 l 555 555 l 416 555 l 416 416 "},"è":{"x_min":0,"x_max":694.59375,"ha":833,"o":"m 139 833 l 277 833 l 277 695 l 0 695 l 0 0 l 694 0 l 694 139 l 139 139 l 139 278 l 416 278 l 416 417 l 139 417 l 139 556 l 694 556 l 694 695 l 416 695 l 416 833 l 277 833 l 277 972 l 139 972 l 139 833 "},"º":{"x_min":0,"x_max":416.703125,"ha":556,"o":"m 0 416 l 416 416 l 416 972 l 0 972 l 0 416 m 139 833 l 277 833 l 277 555 l 139 555 l 139 833 "},"Ø":{"x_min":0,"x_max":694.5,"ha":833,"o":"m 0 0 l 694 0 l 694 695 l 0 695 l 0 0 m 139 555 l 416 555 l 416 416 l 555 416 l 555 138 l 277 138 l 277 277 l 139 277 l 139 555 m 277 277 l 416 277 l 416 416 l 277 416 l 277 277 "},"÷":{"x_min":0,"x_max":416.703125,"ha":556,"o":"m 0 277 l 416 277 l 416 416 l 0 416 l 0 277 m 139 556 l 277 556 l 277 695 l 139 695 l 139 556 m 139 0 l 277 0 l 277 138 l 139 138 l 139 0 "},"h":{"x_min":0,"x_max":694.59375,"ha":833,"o":"m 555 0 l 694 0 l 694 695 l 555 695 l 555 417 l 139 417 l 139 695 l 0 695 l 0 0 l 139 0 l 139 277 l 555 277 l 555 0 "},".":{"x_min":0,"x_max":139,"ha":278,"o":"m 0 0 l 139 0 l 139 138 l 0 138 l 0 0 "},";":{"x_min":0,"x_max":139,"ha":278,"o":"m 0 -138 l 139 -138 l 139 138 l 0 138 l 0 -138 m 0 555 l 139 555 l 139 694 l 0 694 l 0 555 "},"f":{"x_min":0,"x_max":694.59375,"ha":833,"o":"m 0 0 l 139 0 l 139 278 l 416 278 l 416 417 l 139 417 l 139 556 l 694 556 l 694 695 l 0 695 l 0 0 "},"“":{"x_min":0,"x_max":416.703125,"ha":556,"o":"m 0 694 l 139 694 l 139 972 l 0 972 l 0 694 m 277 694 l 416 694 l 416 972 l 277 972 l 277 694 "},"A":{"x_min":0,"x_max":694.59375,"ha":833,"o":"m 555 0 l 694 0 l 694 695 l 0 695 l 0 0 l 139 0 l 139 277 l 555 277 l 555 0 m 139 555 l 555 555 l 555 416 l 139 416 l 139 555 "},"6":{"x_min":0,"x_max":694.59375,"ha":833,"o":"m 0 0 l 694 0 l 694 417 l 139 417 l 139 556 l 694 556 l 694 695 l 0 695 l 0 0 m 139 277 l 555 277 l 555 138 l 139 138 l 139 277 "},"‘":{"x_min":0,"x_max":139,"ha":278,"o":"m 0 694 l 139 694 l 139 972 l 0 972 l 0 694 "},"O":{"x_min":0,"x_max":694.5,"ha":833,"o":"m 0 0 l 694 0 l 694 695 l 0 695 l 0 0 m 139 555 l 555 555 l 555 138 l 139 138 l 139 555 "},"n":{"x_min":0,"x_max":694.59375,"ha":833,"o":"m 555 0 l 694 0 l 694 695 l 0 695 l 0 0 l 139 0 l 139 555 l 555 555 l 555 0 "},"3":{"x_min":0,"x_max":694.5,"ha":833,"o":"m 0 556 l 555 556 l 555 417 l 277 417 l 277 278 l 555 278 l 555 139 l 0 139 l 0 0 l 694 0 l 694 695 l 0 695 l 0 556 "},"9":{"x_min":0,"x_max":694.5,"ha":833,"o":"m 0 278 l 555 278 l 555 0 l 694 0 l 694 695 l 0 695 l 0 278 m 139 555 l 555 555 l 555 416 l 139 416 l 139 555 "},"l":{"x_min":0,"x_max":694.59375,"ha":833,"o":"m 0 0 l 694 0 l 694 139 l 139 139 l 139 695 l 0 695 l 0 0 "},"¤":{"x_min":0,"x_max":694.59375,"ha":833,"o":"m 139 555 l 139 138 l 555 138 l 555 0 l 694 0 l 694 138 l 555 138 l 555 555 l 139 555 m 555 556 l 694 556 l 694 695 l 555 695 l 555 556 m 0 0 l 139 0 l 139 138 l 0 138 l 0 0 m 416 277 l 277 277 l 277 416 l 416 416 l 416 277 m 139 556 l 139 695 l 0 695 l 0 556 l 139 556 "},"4":{"x_min":0,"x_max":694.59375,"ha":833,"o":"m 0 278 l 555 278 l 555 0 l 694 0 l 694 695 l 555 695 l 555 417 l 139 417 l 139 695 l 0 695 l 0 278 "},"p":{"x_min":0,"x_max":694.59375,"ha":833,"o":"m 0 0 l 139 0 l 139 278 l 694 278 l 694 695 l 0 695 l 0 0 m 139 555 l 555 555 l 555 416 l 139 416 l 139 555 "},"‡":{"x_min":0,"x_max":694.5,"ha":833,"o":"m 0 0 l 277 0 l 277 -277 l 416 -277 l 416 0 l 694 0 l 694 139 l 416 139 l 416 556 l 694 556 l 694 695 l 416 695 l 416 972 l 277 972 l 277 695 l 0 695 l 0 556 l 277 556 l 277 139 l 0 139 l 0 0 "},"à":{"x_min":0,"x_max":694.59375,"ha":833,"o":"m 139 833 l 277 833 l 277 695 l 0 695 l 0 0 l 139 0 l 139 277 l 555 277 l 555 0 l 694 0 l 694 695 l 416 695 l 416 833 l 277 833 l 277 972 l 139 972 l 139 833 m 139 555 l 555 555 l 555 416 l 139 416 l 139 555 "},"Ü":{"x_min":0,"x_max":694.59375,"ha":833,"o":"m 416 695 l 555 695 l 555 139 l 139 139 l 139 695 l 277 695 l 277 972 l 0 972 l 0 0 l 694 0 l 694 972 l 416 972 l 416 695 "},"ó":{"x_min":0,"x_max":694.5,"ha":833,"o":"m 0 0 l 694 0 l 694 695 l 416 695 l 416 833 l 277 833 l 277 695 l 0 695 l 0 0 m 139 555 l 555 555 l 555 138 l 139 138 l 139 555 m 416 833 l 555 833 l 555 972 l 416 972 l 416 833 "}}}
